<svg width="26" height="26" viewBox="0 0 26 26" fill="none" xmlns="http://www.w3.org/2000/svg">
<circle cx="13" cy="13" r="13" fill="#885403"/>
<path d="M14.4902 14.2651C14.4494 15.0457 13.8046 15.6578 13.0229 15.6578C12.2411 15.6578 11.5963 15.0457 11.5555 14.2651L11.1483 6.46432C11.0923 5.39065 11.9477 4.48938 13.0229 4.48938C14.098 4.48938 14.9534 5.39065 14.8974 6.46431L14.4902 14.2651ZM10.9995 19.5673C10.9995 18.9272 11.171 18.4432 11.5139 18.1155C11.8569 17.7878 12.356 17.624 13.0114 17.624C13.644 17.624 14.1317 17.7917 14.4746 18.127C14.8252 18.4623 15.0005 18.9424 15.0005 19.5673C15.0005 20.1694 14.8252 20.6457 14.4746 20.9962C14.1241 21.3392 13.6363 21.5107 13.0114 21.5107C12.3713 21.5107 11.8759 21.343 11.5254 21.0077C11.1748 20.6647 10.9995 20.1846 10.9995 19.5673Z" fill="#FFE592"/>
</svg>
